<mxfile host="app.diagrams.net" agent="Mozilla/5.0 (Windows NT 10.0; Win64; x64) AppleWebKit/537.36 (KHTML, like Gecko) Chrome/133.0.0.0 Safari/537.36" version="26.0.15">
  <diagram id="C5RBs43oDa-KdzZeNtuy" name="Page-1">
    <mxGraphModel dx="1008" dy="867" grid="1" gridSize="10" guides="1" tooltips="1" connect="1" arrows="1" fold="1" page="1" pageScale="1" pageWidth="827" pageHeight="1169" math="0" shadow="0">
      <root>
        <mxCell id="WIyWlLk6GJQsqaUBKTNV-0" />
        <mxCell id="WIyWlLk6GJQsqaUBKTNV-1" parent="WIyWlLk6GJQsqaUBKTNV-0" />
        <mxCell id="0paDKjc0tP_e554IeG12-0" value="reservation" style="swimlane;fontStyle=0;childLayout=stackLayout;horizontal=1;startSize=26;fillColor=none;horizontalStack=0;resizeParent=1;resizeParentMax=0;resizeLast=0;collapsible=1;marginBottom=0;whiteSpace=wrap;html=1;" vertex="1" parent="WIyWlLk6GJQsqaUBKTNV-1">
          <mxGeometry x="530" y="347" width="140" height="130" as="geometry" />
        </mxCell>
        <mxCell id="0paDKjc0tP_e554IeG12-1" value="+ id: int" style="text;strokeColor=none;fillColor=none;align=left;verticalAlign=top;spacingLeft=4;spacingRight=4;overflow=hidden;rotatable=0;points=[[0,0.5],[1,0.5]];portConstraint=eastwest;whiteSpace=wrap;html=1;" vertex="1" parent="0paDKjc0tP_e554IeG12-0">
          <mxGeometry y="26" width="140" height="26" as="geometry" />
        </mxCell>
        <mxCell id="0paDKjc0tP_e554IeG12-2" value="+ date_reservation: date" style="text;strokeColor=none;fillColor=none;align=left;verticalAlign=top;spacingLeft=4;spacingRight=4;overflow=hidden;rotatable=0;points=[[0,0.5],[1,0.5]];portConstraint=eastwest;whiteSpace=wrap;html=1;" vertex="1" parent="0paDKjc0tP_e554IeG12-0">
          <mxGeometry y="52" width="140" height="26" as="geometry" />
        </mxCell>
        <mxCell id="0paDKjc0tP_e554IeG12-3" value="+ id_utilisateur: int" style="text;strokeColor=none;fillColor=none;align=left;verticalAlign=top;spacingLeft=4;spacingRight=4;overflow=hidden;rotatable=0;points=[[0,0.5],[1,0.5]];portConstraint=eastwest;whiteSpace=wrap;html=1;" vertex="1" parent="0paDKjc0tP_e554IeG12-0">
          <mxGeometry y="78" width="140" height="26" as="geometry" />
        </mxCell>
        <mxCell id="0paDKjc0tP_e554IeG12-4" value="+ id_creneau: int" style="text;strokeColor=none;fillColor=none;align=left;verticalAlign=top;spacingLeft=4;spacingRight=4;overflow=hidden;rotatable=0;points=[[0,0.5],[1,0.5]];portConstraint=eastwest;whiteSpace=wrap;html=1;" vertex="1" parent="0paDKjc0tP_e554IeG12-0">
          <mxGeometry y="104" width="140" height="26" as="geometry" />
        </mxCell>
        <mxCell id="0paDKjc0tP_e554IeG12-5" style="edgeStyle=orthogonalEdgeStyle;rounded=0;orthogonalLoop=1;jettySize=auto;html=1;exitX=0;exitY=0.5;exitDx=0;exitDy=0;endArrow=none;startFill=0;" edge="1" parent="WIyWlLk6GJQsqaUBKTNV-1" source="0paDKjc0tP_e554IeG12-29" target="0paDKjc0tP_e554IeG12-17">
          <mxGeometry relative="1" as="geometry" />
        </mxCell>
        <mxCell id="0paDKjc0tP_e554IeG12-6" value="1..*" style="edgeLabel;html=1;align=center;verticalAlign=middle;resizable=0;points=[];" vertex="1" connectable="0" parent="0paDKjc0tP_e554IeG12-5">
          <mxGeometry x="0.8509" y="1" relative="1" as="geometry">
            <mxPoint x="7" y="1" as="offset" />
          </mxGeometry>
        </mxCell>
        <mxCell id="0paDKjc0tP_e554IeG12-7" value="1" style="edgeLabel;html=1;align=center;verticalAlign=middle;resizable=0;points=[];" vertex="1" connectable="0" parent="0paDKjc0tP_e554IeG12-5">
          <mxGeometry x="-0.8333" y="1" relative="1" as="geometry">
            <mxPoint as="offset" />
          </mxGeometry>
        </mxCell>
        <mxCell id="0paDKjc0tP_e554IeG12-8" value="programmer" style="edgeLabel;html=1;align=center;verticalAlign=middle;resizable=0;points=[];" vertex="1" connectable="0" parent="0paDKjc0tP_e554IeG12-5">
          <mxGeometry x="0.0175" relative="1" as="geometry">
            <mxPoint as="offset" />
          </mxGeometry>
        </mxCell>
        <mxCell id="0paDKjc0tP_e554IeG12-9" value="" style="endArrow=none;html=1;edgeStyle=orthogonalEdgeStyle;rounded=0;exitX=1;exitY=0.5;exitDx=0;exitDy=0;entryX=0;entryY=0.5;entryDx=0;entryDy=0;" edge="1" parent="WIyWlLk6GJQsqaUBKTNV-1" source="0paDKjc0tP_e554IeG12-21" target="0paDKjc0tP_e554IeG12-3">
          <mxGeometry relative="1" as="geometry">
            <mxPoint x="360" y="600" as="sourcePoint" />
            <mxPoint x="520" y="600" as="targetPoint" />
          </mxGeometry>
        </mxCell>
        <mxCell id="0paDKjc0tP_e554IeG12-10" value="0..*" style="edgeLabel;resizable=0;html=1;align=right;verticalAlign=bottom;" connectable="0" vertex="1" parent="0paDKjc0tP_e554IeG12-9">
          <mxGeometry x="1" relative="1" as="geometry">
            <mxPoint x="-10" as="offset" />
          </mxGeometry>
        </mxCell>
        <mxCell id="0paDKjc0tP_e554IeG12-11" value="reserver" style="edgeLabel;html=1;align=center;verticalAlign=middle;resizable=0;points=[];" vertex="1" connectable="0" parent="0paDKjc0tP_e554IeG12-9">
          <mxGeometry x="-0.0726" y="1" relative="1" as="geometry">
            <mxPoint as="offset" />
          </mxGeometry>
        </mxCell>
        <mxCell id="0paDKjc0tP_e554IeG12-12" value="1" style="edgeLabel;html=1;align=center;verticalAlign=middle;resizable=0;points=[];" vertex="1" connectable="0" parent="0paDKjc0tP_e554IeG12-9">
          <mxGeometry x="-0.8844" y="-2" relative="1" as="geometry">
            <mxPoint as="offset" />
          </mxGeometry>
        </mxCell>
        <mxCell id="0paDKjc0tP_e554IeG12-13" value="creneau" style="swimlane;fontStyle=0;childLayout=stackLayout;horizontal=1;startSize=26;fillColor=none;horizontalStack=0;resizeParent=1;resizeParentMax=0;resizeLast=0;collapsible=1;marginBottom=0;whiteSpace=wrap;html=1;" vertex="1" parent="WIyWlLk6GJQsqaUBKTNV-1">
          <mxGeometry x="780" y="360" width="140" height="130" as="geometry" />
        </mxCell>
        <mxCell id="0paDKjc0tP_e554IeG12-14" value="+ id: int" style="text;strokeColor=none;fillColor=none;align=left;verticalAlign=top;spacingLeft=4;spacingRight=4;overflow=hidden;rotatable=0;points=[[0,0.5],[1,0.5]];portConstraint=eastwest;whiteSpace=wrap;html=1;" vertex="1" parent="0paDKjc0tP_e554IeG12-13">
          <mxGeometry y="26" width="140" height="26" as="geometry" />
        </mxCell>
        <mxCell id="0paDKjc0tP_e554IeG12-15" value="+ places: int" style="text;strokeColor=none;fillColor=none;align=left;verticalAlign=top;spacingLeft=4;spacingRight=4;overflow=hidden;rotatable=0;points=[[0,0.5],[1,0.5]];portConstraint=eastwest;whiteSpace=wrap;html=1;" vertex="1" parent="0paDKjc0tP_e554IeG12-13">
          <mxGeometry y="52" width="140" height="26" as="geometry" />
        </mxCell>
        <mxCell id="0paDKjc0tP_e554IeG12-16" value="+ date_heure: date" style="text;strokeColor=none;fillColor=none;align=left;verticalAlign=top;spacingLeft=4;spacingRight=4;overflow=hidden;rotatable=0;points=[[0,0.5],[1,0.5]];portConstraint=eastwest;whiteSpace=wrap;html=1;" vertex="1" parent="0paDKjc0tP_e554IeG12-13">
          <mxGeometry y="78" width="140" height="26" as="geometry" />
        </mxCell>
        <mxCell id="0paDKjc0tP_e554IeG12-17" value="+ id_cours: int" style="text;strokeColor=none;fillColor=none;align=left;verticalAlign=top;spacingLeft=4;spacingRight=4;overflow=hidden;rotatable=0;points=[[0,0.5],[1,0.5]];portConstraint=eastwest;whiteSpace=wrap;html=1;" vertex="1" parent="0paDKjc0tP_e554IeG12-13">
          <mxGeometry y="104" width="140" height="26" as="geometry" />
        </mxCell>
        <mxCell id="0paDKjc0tP_e554IeG12-18" style="edgeStyle=orthogonalEdgeStyle;rounded=0;orthogonalLoop=1;jettySize=auto;html=1;entryX=0;entryY=0.5;entryDx=0;entryDy=0;endArrow=none;startFill=0;" edge="1" parent="WIyWlLk6GJQsqaUBKTNV-1" source="0paDKjc0tP_e554IeG12-4" target="0paDKjc0tP_e554IeG12-14">
          <mxGeometry relative="1" as="geometry" />
        </mxCell>
        <mxCell id="0paDKjc0tP_e554IeG12-19" value="attribuer" style="edgeLabel;html=1;align=center;verticalAlign=middle;resizable=0;points=[];" vertex="1" connectable="0" parent="0paDKjc0tP_e554IeG12-18">
          <mxGeometry x="-0.1119" y="1" relative="1" as="geometry">
            <mxPoint as="offset" />
          </mxGeometry>
        </mxCell>
        <mxCell id="0paDKjc0tP_e554IeG12-20" value="&lt;span style=&quot;font-weight: 400;&quot;&gt;utilisateur&lt;/span&gt;" style="swimlane;fontStyle=1;align=center;verticalAlign=top;childLayout=stackLayout;horizontal=1;startSize=26;horizontalStack=0;resizeParent=1;resizeParentMax=0;resizeLast=0;collapsible=1;marginBottom=0;whiteSpace=wrap;html=1;" vertex="1" parent="WIyWlLk6GJQsqaUBKTNV-1">
          <mxGeometry x="230" y="310" width="160" height="130" as="geometry" />
        </mxCell>
        <mxCell id="0paDKjc0tP_e554IeG12-21" value="+ id: int" style="text;strokeColor=none;fillColor=none;align=left;verticalAlign=top;spacingLeft=4;spacingRight=4;overflow=hidden;rotatable=0;points=[[0,0.5],[1,0.5]];portConstraint=eastwest;whiteSpace=wrap;html=1;" vertex="1" parent="0paDKjc0tP_e554IeG12-20">
          <mxGeometry y="26" width="160" height="26" as="geometry" />
        </mxCell>
        <mxCell id="0paDKjc0tP_e554IeG12-22" value="+ nom: string" style="text;strokeColor=none;fillColor=none;align=left;verticalAlign=top;spacingLeft=4;spacingRight=4;overflow=hidden;rotatable=0;points=[[0,0.5],[1,0.5]];portConstraint=eastwest;whiteSpace=wrap;html=1;" vertex="1" parent="0paDKjc0tP_e554IeG12-20">
          <mxGeometry y="52" width="160" height="26" as="geometry" />
        </mxCell>
        <mxCell id="0paDKjc0tP_e554IeG12-23" value="+ prenom: string" style="text;strokeColor=none;fillColor=none;align=left;verticalAlign=top;spacingLeft=4;spacingRight=4;overflow=hidden;rotatable=0;points=[[0,0.5],[1,0.5]];portConstraint=eastwest;whiteSpace=wrap;html=1;" vertex="1" parent="0paDKjc0tP_e554IeG12-20">
          <mxGeometry y="78" width="160" height="26" as="geometry" />
        </mxCell>
        <mxCell id="0paDKjc0tP_e554IeG12-24" value="+ adresse: string" style="text;strokeColor=none;fillColor=none;align=left;verticalAlign=top;spacingLeft=4;spacingRight=4;overflow=hidden;rotatable=0;points=[[0,0.5],[1,0.5]];portConstraint=eastwest;whiteSpace=wrap;html=1;" vertex="1" parent="0paDKjc0tP_e554IeG12-20">
          <mxGeometry y="104" width="160" height="26" as="geometry" />
        </mxCell>
        <mxCell id="0paDKjc0tP_e554IeG12-28" value="&lt;span style=&quot;font-weight: 400;&quot;&gt;cours&lt;/span&gt;" style="swimlane;fontStyle=1;align=center;verticalAlign=top;childLayout=stackLayout;horizontal=1;startSize=26;horizontalStack=0;resizeParent=1;resizeParentMax=0;resizeLast=0;collapsible=1;marginBottom=0;whiteSpace=wrap;html=1;" vertex="1" parent="WIyWlLk6GJQsqaUBKTNV-1">
          <mxGeometry x="1050" y="362" width="160" height="104" as="geometry" />
        </mxCell>
        <mxCell id="0paDKjc0tP_e554IeG12-29" value="+ id: int" style="text;strokeColor=none;fillColor=none;align=left;verticalAlign=top;spacingLeft=4;spacingRight=4;overflow=hidden;rotatable=0;points=[[0,0.5],[1,0.5]];portConstraint=eastwest;whiteSpace=wrap;html=1;" vertex="1" parent="0paDKjc0tP_e554IeG12-28">
          <mxGeometry y="26" width="160" height="26" as="geometry" />
        </mxCell>
        <mxCell id="0paDKjc0tP_e554IeG12-30" value="+ nom: string" style="text;strokeColor=none;fillColor=none;align=left;verticalAlign=top;spacingLeft=4;spacingRight=4;overflow=hidden;rotatable=0;points=[[0,0.5],[1,0.5]];portConstraint=eastwest;whiteSpace=wrap;html=1;" vertex="1" parent="0paDKjc0tP_e554IeG12-28">
          <mxGeometry y="52" width="160" height="26" as="geometry" />
        </mxCell>
        <mxCell id="0paDKjc0tP_e554IeG12-31" value="+ description: string" style="text;strokeColor=none;fillColor=none;align=left;verticalAlign=top;spacingLeft=4;spacingRight=4;overflow=hidden;rotatable=0;points=[[0,0.5],[1,0.5]];portConstraint=eastwest;whiteSpace=wrap;html=1;" vertex="1" parent="0paDKjc0tP_e554IeG12-28">
          <mxGeometry y="78" width="160" height="26" as="geometry" />
        </mxCell>
      </root>
    </mxGraphModel>
  </diagram>
</mxfile>
